# xmcd
# Copyright (C) 1995-1998 Ti Kan
#
# Track frame offsets:
#       150
#       4394
#       7688
#
# Disc length: 152 seconds
#
# Revision: 0
# Processed by: cddbd v1.5.2PL0 Copyright (c) Steve Scherf et al.
# Submitted via: CD-Import v1.0
#
DISCID=12009603
DTITLE=Andrew - 
DYEAR=1900
DGENRE=
TTITLE0=Trailer Mum
TTITLE1=Trailer Märt I Dä Gass
TTITLE2=Trailer Russischer Kulturtag
EXTD=
EXTT0=
EXTT1=
EXTT2=
PLAYORDER=
